<svg width="2612" height="2371" viewBox="0 0 2612 2371" fill="none" xmlns="http://www.w3.org/2000/svg">
<path d="M442 113L792.5 62L980 85.5L1252 273L1385 249L1664 62H2008L2382.5 249L2559.5 623.5L2535.5 937L2355.5 1270.5L2338 1461L2144 1526V1624.5L2083 1726.5L1929.5 1764L1909 1856L1861.5 1951.5L1763 1985.5L1664 1951.5L1643.5 2029.5L1385 2326H1214.5L1133 2203.5V2081H980L894.5 1985.5L877.5 1876.5L677 1825.5L642.5 1703V1624.5H469L404.5 1502L336.5 1386L111.5 1052.5L33.5 688.5L111.5 460L261.5 215L442 113Z" fill="white"/>
<path fill-rule="evenodd" clip-rule="evenodd" d="M1317.4 1839.16C1398.64 1754.89 1534.45 1750.93 1620.75 1830.31C1707.04 1909.69 1711.14 2042.35 1629.91 2126.62L1465.26 2297.42C1384.02 2381.69 1248.21 2385.65 1161.91 2306.27C1075.61 2226.89 1071.51 2094.23 1152.75 2009.96L1317.4 1839.16ZM1564.39 1888.77C1511.16 1839.8 1427.38 1842.25 1377.27 1894.23L1212.62 2065.03C1162.5 2117.01 1165.04 2198.84 1218.27 2247.81C1271.5 2296.78 1355.28 2294.33 1405.39 2242.35L1570.04 2071.55C1620.15 2019.57 1617.62 1937.74 1564.39 1888.77Z" fill="black"/>
<path fill-rule="evenodd" clip-rule="evenodd" d="M1064.76 1606.77C1145.99 1522.5 1281.81 1518.54 1368.1 1597.92C1454.4 1677.3 1458.5 1809.96 1377.27 1894.23L1212.62 2065.03C1131.38 2149.29 995.567 2153.26 909.27 2073.88C822.973 1994.5 818.871 1861.83 900.107 1777.57L1064.76 1606.77ZM1311.75 1656.38C1258.51 1607.41 1174.74 1609.86 1124.62 1661.84L959.974 1832.63C909.863 1884.62 912.393 1966.45 965.626 2015.42C1018.86 2064.38 1102.64 2061.94 1152.75 2009.96L1317.4 1839.16C1367.51 1787.18 1364.98 1705.35 1311.75 1656.38Z" fill="black"/>
<path fill-rule="evenodd" clip-rule="evenodd" d="M812.115 1374.38C893.352 1290.11 1029.16 1286.15 1115.46 1365.53C1201.76 1444.91 1205.86 1577.57 1124.62 1661.84L959.974 1832.63C878.738 1916.9 742.925 1920.87 656.628 1841.49C570.331 1762.11 566.229 1629.44 647.466 1545.17L812.115 1374.38ZM1059.11 1423.99C1005.87 1375.02 922.094 1377.47 871.982 1429.45L707.333 1600.24C657.221 1652.22 659.751 1734.06 712.985 1783.03C766.218 1831.99 849.996 1829.55 900.107 1777.57L1064.76 1606.77C1114.87 1554.79 1112.34 1472.95 1059.11 1423.99Z" fill="black"/>
<path fill-rule="evenodd" clip-rule="evenodd" d="M559.473 1141.99C640.71 1057.72 776.523 1053.75 862.82 1133.14C949.117 1212.52 953.219 1345.18 871.982 1429.45L707.333 1600.24C626.096 1684.51 490.283 1688.47 403.986 1609.09C317.689 1529.71 313.587 1397.05 394.824 1312.78L559.473 1141.99ZM806.463 1191.6C753.23 1142.63 669.452 1145.07 619.341 1197.06L454.691 1367.85C404.579 1419.83 407.11 1501.67 460.343 1550.63C513.576 1599.6 597.354 1597.16 647.466 1545.17L812.115 1374.38C862.227 1322.4 859.696 1240.56 806.463 1191.6Z" fill="black"/>
<path fill-rule="evenodd" clip-rule="evenodd" d="M875.334 23.2183C1071.58 62.6913 1239.48 171.333 1335.02 259.889L1277.24 322.229C1190.45 241.784 1036.19 142.276 858.573 106.549C683.063 71.247 484.778 97.9013 301.608 268.647C73.1407 481.616 63.4404 724.931 125.907 933.688C189.181 1145.14 326.2 1317.53 382.681 1374.01C392.22 1383.55 406.288 1397.87 424.068 1416.12L363.189 1475.44C345.453 1457.24 331.706 1443.24 322.576 1434.11C259.057 1370.59 112.826 1186.48 44.4748 958.055C-24.6833 726.937 -14.3837 447.001 243.649 206.471C449.679 14.4163 676.978 -16.6794 875.334 23.2183Z" fill="black"/>
<path fill-rule="evenodd" clip-rule="evenodd" d="M1581.69 998.065C1597.78 980.971 1624.67 980.153 1641.77 996.239L2103.16 1430.41C2154.55 1478.77 2235.42 1476.31 2283.78 1424.92C2332.15 1373.52 2329.69 1292.66 2278.29 1244.29L1785.95 780.999L1844.2 719.096L2336.54 1182.39C2422.13 1262.92 2426.22 1397.59 2345.69 1483.17C2265.15 1568.75 2130.49 1572.84 2044.91 1492.31L1583.52 1058.14C1566.42 1042.06 1565.6 1015.16 1581.69 998.065Z" fill="black"/>
<path fill-rule="evenodd" clip-rule="evenodd" d="M1349 1246.02C1365.09 1228.92 1391.98 1228.11 1409.08 1244.19L1870.47 1678.36C1921.86 1726.72 2002.73 1724.26 2051.09 1672.87C2099.46 1621.48 2097 1540.61 2045.6 1492.25L1584.21 1058.08C1567.12 1041.99 1566.3 1015.09 1582.38 998C1598.47 980.906 1625.37 980.088 1642.46 996.174L2103.85 1430.34C2189.44 1510.88 2193.53 1645.54 2113 1731.12C2032.46 1816.7 1897.8 1820.8 1812.22 1740.26L1350.83 1306.09C1333.73 1290.01 1332.91 1263.11 1349 1246.02Z" fill="black"/>
<path fill-rule="evenodd" clip-rule="evenodd" d="M1588.5 1895.5L1637.47 1926.36C1688.86 1974.72 1769.73 1972.26 1818.09 1920.87C1866.46 1869.48 1864 1788.61 1812.6 1740.25L1351.21 1306.08C1334.12 1289.99 1333.3 1263.09 1349.38 1246C1365.47 1228.91 1392.37 1228.09 1409.46 1244.17L1870.85 1678.34C1956.44 1758.88 1960.53 1893.54 1880 1979.12C1818.04 2044.96 1724.04 2062.57 1645 2030.52C1621.31 2020.91 1635.24 1997.69 1615.5 1979.12V1954L1588.5 1895.5Z" fill="black"/>
<path fill-rule="evenodd" clip-rule="evenodd" d="M1272.83 276.802C1272.8 276.831 1272.77 276.86 1272.74 276.889L719.099 784.347C710.484 792.244 709.546 805.497 716.963 814.528L729.285 829.532C763.095 870.701 832.84 911.968 911.526 933.391C991.507 955.168 1089.01 958.751 1178.17 914.052C1323.07 841.417 1483.6 686.995 1575.13 582.619L2376.61 1334.44L2404.61 1293.59C2486 1174.89 2578.14 999.732 2599.65 806.02C2621.42 609.939 2570.39 396.639 2368.61 208.546C2162.15 16.0937 1933.28 -10.9013 1733.93 32.9122C1536.77 76.2432 1368.07 188.561 1272.83 276.802ZM1752.18 115.931C1928.94 77.082 2127.91 100.375 2310.65 270.722C2490.95 438.797 2534.26 624.686 2515.17 796.639C2498.07 950.583 2430.62 1094.7 2361.8 1204L1587.9 478.867C1584.09 475.304 1578.07 475.706 1574.77 479.743L1552.07 507.548C1471.87 605.788 1286.07 764.884 1140.08 838.066C1075.25 870.567 1000.67 869.567 933.856 851.377C889.101 839.191 851.407 820.295 825.422 802.197L1330.43 339.309L1330.52 339.229C1417.64 258.483 1573.28 155.248 1752.18 115.931Z" fill="black"/>
<path d="M1317.4 1839.16C1398.64 1754.89 1534.45 1750.93 1620.75 1830.31C1707.04 1909.69 1711.14 2042.35 1629.91 2126.62L1465.26 2297.42C1384.02 2381.69 1248.21 2385.65 1161.91 2306.27C1075.61 2226.89 1071.51 2094.23 1152.75 2009.96M1317.4 1839.16L1152.75 2009.96M1317.4 1839.16C1367.51 1787.18 1364.98 1705.35 1311.75 1656.38C1258.51 1607.41 1174.74 1609.86 1124.62 1661.84M1152.75 2009.96C1102.64 2061.94 1018.86 2064.38 965.626 2015.42C912.393 1966.45 909.863 1884.62 959.974 1832.63M1377.27 1894.23C1427.38 1842.25 1511.16 1839.8 1564.39 1888.77C1617.62 1937.74 1620.15 2019.57 1570.04 2071.55L1405.39 2242.35C1355.28 2294.33 1271.5 2296.78 1218.27 2247.81C1165.04 2198.84 1162.5 2117.01 1212.62 2065.03M1377.27 1894.23L1212.62 2065.03M1377.27 1894.23C1458.5 1809.96 1454.4 1677.3 1368.1 1597.92C1281.81 1518.54 1145.99 1522.5 1064.76 1606.77M1212.62 2065.03C1131.38 2149.29 995.567 2153.26 909.27 2073.88C822.973 1994.5 818.871 1861.83 900.107 1777.57M1064.76 1606.77L900.107 1777.57M1064.76 1606.77C1114.87 1554.79 1112.34 1472.95 1059.11 1423.99C1005.87 1375.02 922.094 1377.47 871.982 1429.45M900.107 1777.57C849.996 1829.55 766.218 1831.99 712.985 1783.03C659.751 1734.06 657.221 1652.22 707.333 1600.24M1124.62 1661.84L959.974 1832.63M1124.62 1661.84C1205.86 1577.57 1201.76 1444.91 1115.46 1365.53C1029.16 1286.15 893.352 1290.11 812.115 1374.38M959.974 1832.63C878.738 1916.9 742.925 1920.87 656.628 1841.49C570.331 1762.11 566.229 1629.44 647.466 1545.17M812.115 1374.38L647.466 1545.17M812.115 1374.38C862.227 1322.4 859.696 1240.56 806.463 1191.6C753.23 1142.63 669.452 1145.07 619.341 1197.06L454.691 1367.85C404.579 1419.83 407.11 1501.67 460.343 1550.63C513.576 1599.6 597.354 1597.16 647.466 1545.17M871.982 1429.45L707.333 1600.24M871.982 1429.45C953.219 1345.18 949.117 1212.52 862.82 1133.14C776.523 1053.75 640.71 1057.72 559.473 1141.99L394.824 1312.78C313.587 1397.05 317.689 1529.71 403.986 1609.09C490.283 1688.47 626.096 1684.51 707.333 1600.24M1335.02 259.889C1239.48 171.333 1071.58 62.6913 875.334 23.2183C676.978 -16.6794 449.679 14.4163 243.649 206.471C-14.3837 447.001 -24.6833 726.937 44.4748 958.055C112.826 1186.48 259.057 1370.59 322.576 1434.11C331.706 1443.24 345.453 1457.24 363.189 1475.44L424.068 1416.12C406.288 1397.87 392.22 1383.55 382.681 1374.01C326.2 1317.53 189.181 1145.14 125.907 933.688C63.4404 724.931 73.1407 481.616 301.608 268.647C484.778 97.9013 683.063 71.247 858.573 106.549C1036.19 142.276 1190.45 241.784 1277.24 322.229L1335.02 259.889ZM2103.16 1430.41L1641.77 996.239C1624.67 980.153 1597.78 980.971 1581.69 998.065C1565.6 1015.16 1566.42 1042.06 1583.52 1058.14L2044.91 1492.31C2130.49 1572.84 2265.15 1568.75 2345.69 1483.17C2426.22 1397.59 2422.13 1262.92 2336.54 1182.39L1844.2 719.096L1785.95 780.999L2278.29 1244.29C2329.69 1292.66 2332.15 1373.52 2283.78 1424.92C2235.42 1476.31 2154.55 1478.77 2103.16 1430.41ZM1870.47 1678.36L1409.08 1244.19C1391.98 1228.11 1365.09 1228.92 1349 1246.02C1332.91 1263.11 1333.73 1290.01 1350.83 1306.09L1812.22 1740.26C1897.8 1820.8 2032.46 1816.7 2113 1731.12C2193.53 1645.54 2189.44 1510.88 2103.85 1430.34L1642.46 996.174C1625.37 980.088 1598.47 980.906 1582.38 998C1566.3 1015.09 1567.12 1041.99 1584.21 1058.08L2045.6 1492.25C2097 1540.61 2099.46 1621.48 2051.09 1672.87C2002.73 1724.26 1921.86 1726.72 1870.47 1678.36ZM1637.47 1926.36L1588.5 1895.5L1615.5 1954V1979.12C1635.24 1997.69 1621.31 2020.91 1645 2030.52C1724.04 2062.57 1818.04 2044.96 1880 1979.12C1960.53 1893.54 1956.44 1758.88 1870.85 1678.34L1409.46 1244.17C1392.37 1228.09 1365.47 1228.91 1349.38 1246C1333.3 1263.09 1334.12 1289.99 1351.21 1306.08L1812.6 1740.25C1864 1788.61 1866.46 1869.48 1818.09 1920.87C1769.73 1972.26 1688.86 1974.72 1637.47 1926.36ZM1272.74 276.889C1272.77 276.86 1272.8 276.831 1272.83 276.802C1368.07 188.561 1536.77 76.2432 1733.93 32.9122C1933.28 -10.9013 2162.15 16.0937 2368.61 208.546C2570.39 396.639 2621.42 609.939 2599.65 806.02C2578.14 999.732 2486 1174.89 2404.61 1293.59L2376.61 1334.44L1575.13 582.619C1483.6 686.995 1323.07 841.417 1178.17 914.052C1089.01 958.751 991.507 955.168 911.526 933.391C832.84 911.968 763.095 870.701 729.285 829.532L716.963 814.528C709.546 805.497 710.484 792.244 719.099 784.347L1272.74 276.889ZM2310.65 270.722C2127.91 100.375 1928.94 77.082 1752.18 115.931C1573.28 155.248 1417.64 258.483 1330.52 339.229L1330.43 339.309L825.422 802.197C851.407 820.295 889.101 839.191 933.856 851.377C1000.67 869.567 1075.25 870.567 1140.08 838.066C1286.07 764.884 1471.87 605.788 1552.07 507.548L1574.77 479.743C1578.07 475.706 1584.09 475.304 1587.9 478.867L2361.8 1204C2430.62 1094.7 2498.07 950.583 2515.17 796.639C2534.26 624.686 2490.95 438.797 2310.65 270.722Z" stroke="black" stroke-width="15"/>
</svg>
