<svg width="2597" height="2356" viewBox="0 0 2597 2356" fill="none" xmlns="http://www.w3.org/2000/svg">
<path d="M434 105L784.5 54L972 77.5L1244 265L1377 241L1656 54H2000L2374.5 241L2551.5 615.5L2527.5 929L2347.5 1262.5L2330 1453L2136 1518V1616.5L2075 1718.5L1921.5 1756L1901 1848L1853.5 1943.5L1755 1977.5L1656 1943.5L1635.5 2021.5L1377 2318H1206.5L1125 2195.5V2073H972L886.5 1977.5L869.5 1868.5L669 1817.5L634.5 1695V1616.5H461L396.5 1494L328.5 1378L103.5 1044.5L25.5 680.5L103.5 452L253.5 207L434 105Z" fill="#DB4E4E"/>
<mask id="path-2-inside-1_0_1" fill="white">
<path fill-rule="evenodd" clip-rule="evenodd" d="M1309.4 1831.16C1390.64 1746.89 1526.45 1742.93 1612.75 1822.31C1699.04 1901.69 1703.14 2034.35 1621.91 2118.62L1457.26 2289.42C1376.02 2373.69 1240.21 2377.65 1153.91 2298.27C1067.61 2218.89 1063.51 2086.23 1144.75 2001.96L1309.4 1831.16ZM1556.39 1880.77C1503.16 1831.8 1419.38 1834.25 1369.27 1886.23L1204.62 2057.03C1154.5 2109.01 1157.04 2190.84 1210.27 2239.81C1263.5 2288.78 1347.28 2286.33 1397.39 2234.35L1562.04 2063.55C1612.15 2011.57 1609.62 1929.74 1556.39 1880.77Z"/>
<path fill-rule="evenodd" clip-rule="evenodd" d="M1056.76 1598.77C1137.99 1514.5 1273.81 1510.54 1360.1 1589.92C1446.4 1669.3 1450.5 1801.96 1369.27 1886.23L1204.62 2057.03C1123.38 2141.29 987.567 2145.26 901.27 2065.88C814.973 1986.5 810.871 1853.83 892.107 1769.57L1056.76 1598.77ZM1303.75 1648.38C1250.51 1599.41 1166.74 1601.86 1116.62 1653.84L951.974 1824.63C901.863 1876.62 904.393 1958.45 957.626 2007.42C1010.86 2056.38 1094.64 2053.94 1144.75 2001.96L1309.4 1831.16C1359.51 1779.18 1356.98 1697.35 1303.75 1648.38Z"/>
<path fill-rule="evenodd" clip-rule="evenodd" d="M804.115 1366.38C885.352 1282.11 1021.16 1278.15 1107.46 1357.53C1193.76 1436.91 1197.86 1569.57 1116.62 1653.84L951.974 1824.63C870.738 1908.9 734.925 1912.87 648.628 1833.49C562.331 1754.11 558.229 1621.44 639.466 1537.17L804.115 1366.38ZM1051.11 1415.99C997.872 1367.02 914.094 1369.47 863.982 1421.45L699.333 1592.24C649.221 1644.22 651.751 1726.06 704.985 1775.03C758.218 1823.99 841.996 1821.55 892.107 1769.57L1056.76 1598.77C1106.87 1546.79 1104.34 1464.95 1051.11 1415.99Z"/>
<path fill-rule="evenodd" clip-rule="evenodd" d="M551.473 1133.99C632.71 1049.72 768.523 1045.75 854.82 1125.14C941.117 1204.52 945.219 1337.18 863.982 1421.45L699.333 1592.24C618.096 1676.51 482.283 1680.47 395.986 1601.09C309.689 1521.71 305.587 1389.05 386.824 1304.78L551.473 1133.99ZM798.463 1183.6C745.23 1134.63 661.452 1137.07 611.341 1189.06L446.691 1359.85C396.579 1411.83 399.11 1493.67 452.343 1542.63C505.576 1591.6 589.354 1589.16 639.466 1537.17L804.115 1366.38C854.227 1314.4 851.696 1232.56 798.463 1183.6Z"/>
<path fill-rule="evenodd" clip-rule="evenodd" d="M867.334 15.2183C1063.58 54.6913 1231.48 163.333 1327.02 251.889L1269.24 314.229C1182.45 233.784 1028.19 134.276 850.573 98.5493C675.063 63.247 476.778 89.9013 293.608 260.647C65.1407 473.616 55.4404 716.931 117.907 925.688C181.181 1137.14 318.2 1309.53 374.681 1366.01C384.22 1375.55 398.288 1389.87 416.068 1408.12L355.189 1467.44C337.453 1449.24 323.706 1435.24 314.576 1426.11C251.057 1362.59 104.826 1178.48 36.4748 950.055C-32.6833 718.937 -22.3837 439.001 235.649 198.471C441.679 6.41629 668.978 -24.6794 867.334 15.2183Z"/>
<path fill-rule="evenodd" clip-rule="evenodd" d="M1573.69 990.065C1589.78 972.971 1616.67 972.153 1633.77 988.239L2095.16 1422.41C2146.55 1470.77 2227.42 1468.31 2275.78 1416.92C2324.15 1365.52 2321.69 1284.66 2270.29 1236.29L1777.95 772.999L1836.2 711.096L2328.54 1174.39C2414.13 1254.92 2418.22 1389.59 2337.69 1475.17C2257.15 1560.75 2122.49 1564.84 2036.91 1484.31L1575.52 1050.14C1558.42 1034.06 1557.6 1007.16 1573.69 990.065Z"/>
<path fill-rule="evenodd" clip-rule="evenodd" d="M1341 1238.02C1357.09 1220.92 1383.98 1220.11 1401.08 1236.19L1862.47 1670.36C1913.86 1718.72 1994.73 1716.26 2043.09 1664.87C2091.46 1613.48 2089 1532.61 2037.6 1484.25L1576.21 1050.08C1559.12 1033.99 1558.3 1007.09 1574.38 990C1590.47 972.906 1617.37 972.088 1634.46 988.174L2095.85 1422.34C2181.44 1502.88 2185.53 1637.54 2105 1723.12C2024.46 1808.7 1889.8 1812.8 1804.22 1732.26L1342.83 1298.09C1325.73 1282.01 1324.91 1255.11 1341 1238.02Z"/>
<path fill-rule="evenodd" clip-rule="evenodd" d="M1580.5 1887.5L1629.47 1918.36C1680.86 1966.72 1761.73 1964.26 1810.09 1912.87C1858.46 1861.48 1856 1780.61 1804.6 1732.25L1343.21 1298.08C1326.12 1281.99 1325.3 1255.09 1341.38 1238C1357.47 1220.91 1384.37 1220.09 1401.46 1236.17L1862.85 1670.34C1948.44 1750.88 1952.53 1885.54 1872 1971.12C1810.04 2036.96 1716.04 2054.57 1637 2022.52C1613.31 2012.91 1627.24 1989.69 1607.5 1971.12V1946L1580.5 1887.5Z"/>
<path fill-rule="evenodd" clip-rule="evenodd" d="M1264.83 268.802C1264.8 268.831 1264.77 268.86 1264.74 268.889L711.099 776.347C702.484 784.244 701.546 797.497 708.963 806.528L721.285 821.532C755.095 862.701 824.84 903.968 903.526 925.391C983.507 947.168 1081.01 950.751 1170.17 906.052C1315.07 833.417 1475.6 678.995 1567.13 574.619L2368.61 1326.44L2396.61 1285.59C2478 1166.89 2570.14 991.732 2591.65 798.02C2613.42 601.939 2562.39 388.639 2360.61 200.546C2154.15 8.0937 1925.28 -18.9013 1725.93 24.9122C1528.77 68.2432 1360.07 180.561 1264.83 268.802ZM1744.18 107.931C1920.94 69.082 2119.91 92.3746 2302.65 262.722C2482.95 430.797 2526.26 616.686 2507.17 788.639C2490.07 942.583 2422.62 1086.7 2353.8 1196L1579.9 470.867C1576.09 467.304 1570.07 467.706 1566.77 471.743L1544.07 499.548C1463.87 597.788 1278.07 756.884 1132.08 830.066C1067.25 862.567 992.666 861.567 925.856 843.377C881.101 831.191 843.407 812.295 817.422 794.197L1322.43 331.309L1322.52 331.229C1409.64 250.483 1565.28 147.248 1744.18 107.931Z"/>
</mask>
<path fill-rule="evenodd" clip-rule="evenodd" d="M1309.4 1831.16C1390.64 1746.89 1526.45 1742.93 1612.75 1822.31C1699.04 1901.69 1703.14 2034.35 1621.91 2118.62L1457.26 2289.42C1376.02 2373.69 1240.21 2377.65 1153.91 2298.27C1067.61 2218.89 1063.51 2086.23 1144.75 2001.96L1309.4 1831.16ZM1556.39 1880.77C1503.16 1831.8 1419.38 1834.25 1369.27 1886.23L1204.62 2057.03C1154.5 2109.01 1157.04 2190.84 1210.27 2239.81C1263.5 2288.78 1347.28 2286.33 1397.39 2234.35L1562.04 2063.55C1612.15 2011.57 1609.62 1929.74 1556.39 1880.77Z" fill="black"/>
<path fill-rule="evenodd" clip-rule="evenodd" d="M1056.76 1598.77C1137.99 1514.5 1273.81 1510.54 1360.1 1589.92C1446.4 1669.3 1450.5 1801.96 1369.27 1886.23L1204.62 2057.03C1123.38 2141.29 987.567 2145.26 901.27 2065.88C814.973 1986.5 810.871 1853.83 892.107 1769.57L1056.76 1598.77ZM1303.75 1648.38C1250.51 1599.41 1166.74 1601.86 1116.62 1653.84L951.974 1824.63C901.863 1876.62 904.393 1958.45 957.626 2007.42C1010.86 2056.38 1094.64 2053.94 1144.75 2001.96L1309.4 1831.16C1359.51 1779.18 1356.98 1697.35 1303.75 1648.38Z" fill="black"/>
<path fill-rule="evenodd" clip-rule="evenodd" d="M804.115 1366.38C885.352 1282.11 1021.16 1278.15 1107.46 1357.53C1193.76 1436.91 1197.86 1569.57 1116.62 1653.84L951.974 1824.63C870.738 1908.9 734.925 1912.87 648.628 1833.49C562.331 1754.11 558.229 1621.44 639.466 1537.17L804.115 1366.38ZM1051.11 1415.99C997.872 1367.02 914.094 1369.47 863.982 1421.45L699.333 1592.24C649.221 1644.22 651.751 1726.06 704.985 1775.03C758.218 1823.99 841.996 1821.55 892.107 1769.57L1056.76 1598.77C1106.87 1546.79 1104.34 1464.95 1051.11 1415.99Z" fill="black"/>
<path fill-rule="evenodd" clip-rule="evenodd" d="M551.473 1133.99C632.71 1049.72 768.523 1045.75 854.82 1125.14C941.117 1204.52 945.219 1337.18 863.982 1421.45L699.333 1592.24C618.096 1676.51 482.283 1680.47 395.986 1601.09C309.689 1521.71 305.587 1389.05 386.824 1304.78L551.473 1133.99ZM798.463 1183.6C745.23 1134.63 661.452 1137.07 611.341 1189.06L446.691 1359.85C396.579 1411.83 399.11 1493.67 452.343 1542.63C505.576 1591.6 589.354 1589.16 639.466 1537.17L804.115 1366.38C854.227 1314.4 851.696 1232.56 798.463 1183.6Z" fill="black"/>
<path fill-rule="evenodd" clip-rule="evenodd" d="M867.334 15.2183C1063.58 54.6913 1231.48 163.333 1327.02 251.889L1269.24 314.229C1182.45 233.784 1028.19 134.276 850.573 98.5493C675.063 63.247 476.778 89.9013 293.608 260.647C65.1407 473.616 55.4404 716.931 117.907 925.688C181.181 1137.14 318.2 1309.53 374.681 1366.01C384.22 1375.55 398.288 1389.87 416.068 1408.12L355.189 1467.44C337.453 1449.24 323.706 1435.24 314.576 1426.11C251.057 1362.59 104.826 1178.48 36.4748 950.055C-32.6833 718.937 -22.3837 439.001 235.649 198.471C441.679 6.41629 668.978 -24.6794 867.334 15.2183Z" fill="black"/>
<path fill-rule="evenodd" clip-rule="evenodd" d="M1573.69 990.065C1589.78 972.971 1616.67 972.153 1633.77 988.239L2095.16 1422.41C2146.55 1470.77 2227.42 1468.31 2275.78 1416.92C2324.15 1365.52 2321.69 1284.66 2270.29 1236.29L1777.95 772.999L1836.2 711.096L2328.54 1174.39C2414.13 1254.92 2418.22 1389.59 2337.69 1475.17C2257.15 1560.75 2122.49 1564.84 2036.91 1484.31L1575.52 1050.14C1558.42 1034.06 1557.6 1007.16 1573.69 990.065Z" fill="black"/>
<path fill-rule="evenodd" clip-rule="evenodd" d="M1341 1238.02C1357.09 1220.92 1383.98 1220.11 1401.08 1236.19L1862.47 1670.36C1913.86 1718.72 1994.73 1716.26 2043.09 1664.87C2091.46 1613.48 2089 1532.61 2037.6 1484.25L1576.21 1050.08C1559.12 1033.99 1558.3 1007.09 1574.38 990C1590.47 972.906 1617.37 972.088 1634.46 988.174L2095.85 1422.34C2181.44 1502.88 2185.53 1637.54 2105 1723.12C2024.46 1808.7 1889.8 1812.8 1804.22 1732.26L1342.83 1298.09C1325.73 1282.01 1324.91 1255.11 1341 1238.02Z" fill="black"/>
<path fill-rule="evenodd" clip-rule="evenodd" d="M1580.5 1887.5L1629.47 1918.36C1680.86 1966.72 1761.73 1964.26 1810.09 1912.87C1858.46 1861.48 1856 1780.61 1804.6 1732.25L1343.21 1298.08C1326.12 1281.99 1325.3 1255.09 1341.38 1238C1357.47 1220.91 1384.37 1220.09 1401.46 1236.17L1862.85 1670.34C1948.44 1750.88 1952.53 1885.54 1872 1971.12C1810.04 2036.96 1716.04 2054.57 1637 2022.52C1613.31 2012.91 1627.24 1989.69 1607.5 1971.12V1946L1580.5 1887.5Z" fill="black"/>
<path fill-rule="evenodd" clip-rule="evenodd" d="M1264.83 268.802C1264.8 268.831 1264.77 268.86 1264.74 268.889L711.099 776.347C702.484 784.244 701.546 797.497 708.963 806.528L721.285 821.532C755.095 862.701 824.84 903.968 903.526 925.391C983.507 947.168 1081.01 950.751 1170.17 906.052C1315.07 833.417 1475.6 678.995 1567.13 574.619L2368.61 1326.44L2396.61 1285.59C2478 1166.89 2570.14 991.732 2591.65 798.02C2613.42 601.939 2562.39 388.639 2360.61 200.546C2154.15 8.0937 1925.28 -18.9013 1725.93 24.9122C1528.77 68.2432 1360.07 180.561 1264.83 268.802ZM1744.18 107.931C1920.94 69.082 2119.91 92.3746 2302.65 262.722C2482.95 430.797 2526.26 616.686 2507.17 788.639C2490.07 942.583 2422.62 1086.7 2353.8 1196L1579.9 470.867C1576.09 467.304 1570.07 467.706 1566.77 471.743L1544.07 499.548C1463.87 597.788 1278.07 756.884 1132.08 830.066C1067.25 862.567 992.666 861.567 925.856 843.377C881.101 831.191 843.407 812.295 817.422 794.197L1322.43 331.309L1322.52 331.229C1409.64 250.483 1565.28 147.248 1744.18 107.931Z" fill="black"/>
<path d="M1266.92 1790.21L1102.27 1961.01L1187.23 2042.91L1351.88 1872.11L1266.92 1790.21ZM1247.09 2097.97L1411.74 1927.18L1326.79 1845.28L1162.14 2016.08L1247.09 2097.97ZM1014.28 1557.82L849.631 1728.62L934.584 1810.51L1099.23 1639.72L1014.28 1557.82ZM994.451 1865.58L1159.1 1694.79L1074.15 1612.89L909.498 1783.69L994.451 1865.58ZM761.639 1325.43L596.989 1496.23L681.942 1578.12L846.592 1407.33L761.639 1325.43ZM741.809 1633.19L906.459 1462.4L821.506 1380.5L656.856 1551.29L741.809 1633.19ZM1612.75 1822.31L1692.63 1735.46L1692.63 1735.46L1612.75 1822.31ZM1621.91 2118.62L1536.96 2036.73L1536.96 2036.73L1621.91 2118.62ZM1457.26 2289.42L1542.21 2371.31L1542.21 2371.31L1457.26 2289.42ZM1153.91 2298.27L1233.8 2211.42L1233.8 2211.42L1153.91 2298.27ZM1556.39 1880.77L1476.5 1967.62L1556.39 1880.77ZM1210.27 2239.81L1130.38 2326.66L1130.38 2326.66L1210.27 2239.81ZM1397.39 2234.35L1482.34 2316.25L1482.34 2316.25L1397.39 2234.35ZM1562.04 2063.55L1477.09 1981.66L1477.09 1981.66L1562.04 2063.55ZM1360.1 1589.92L1439.99 1503.07L1439.99 1503.07L1360.1 1589.92ZM901.27 2065.88L981.155 1979.03L981.155 1979.03L901.27 2065.88ZM1303.75 1648.38L1223.86 1735.23L1303.75 1648.38ZM957.626 2007.42L877.741 2094.26L877.741 2094.26L957.626 2007.42ZM1107.46 1357.53L1187.35 1270.68L1187.35 1270.68L1107.46 1357.53ZM648.628 1833.49L728.514 1746.64L728.514 1746.64L648.628 1833.49ZM1051.11 1415.99L971.22 1502.83L1051.11 1415.99ZM704.985 1775.03L625.099 1861.87L625.099 1861.87L704.985 1775.03ZM854.82 1125.14L934.705 1038.29L934.705 1038.29L854.82 1125.14ZM551.473 1133.99L466.52 1052.09L466.52 1052.09L551.473 1133.99ZM395.986 1601.09L475.872 1514.25L475.872 1514.25L395.986 1601.09ZM386.824 1304.78L471.776 1386.68L471.776 1386.68L386.824 1304.78ZM611.341 1189.06L696.293 1270.95L696.293 1270.95L611.341 1189.06ZM798.463 1183.6L718.578 1270.44L798.463 1183.6ZM446.691 1359.85L361.738 1277.95L361.738 1277.95L446.691 1359.85ZM452.343 1542.63L372.457 1629.48L372.457 1629.48L452.343 1542.63ZM1327.02 251.889L1413.56 332.103L1493.78 245.56L1407.23 165.346L1327.02 251.889ZM867.334 15.2183L844.066 130.901L844.066 130.901L867.334 15.2183ZM1269.24 314.229L1189.02 400.772L1275.57 480.986L1355.78 394.443L1269.24 314.229ZM850.573 98.5493L827.304 214.232L850.573 98.5493ZM293.608 260.647L374.068 346.961L293.608 260.647ZM117.907 925.688L4.85988 959.515L4.85988 959.515L117.907 925.688ZM374.681 1366.01L291.242 1449.45L291.242 1449.45L374.681 1366.01ZM416.068 1408.12L498.416 1492.63L582.932 1410.29L500.584 1325.77L416.068 1408.12ZM355.189 1467.44L270.673 1549.79L353.021 1634.3L437.536 1551.95L355.189 1467.44ZM314.576 1426.11L398.015 1342.67L398.015 1342.67L314.576 1426.11ZM36.4748 950.055L-76.5725 983.882L36.4748 950.055ZM235.649 198.471L155.19 112.156L155.19 112.156L235.649 198.471ZM2095.16 1422.41L2014.3 1508.34L2014.3 1508.34L2095.16 1422.41ZM2275.78 1416.92L2189.85 1336.05L2189.85 1336.05L2275.78 1416.92ZM2270.29 1236.29L2351.16 1150.36L2351.16 1150.36L2270.29 1236.29ZM1777.95 772.999L1692.01 692.134L1611.15 778.069L1697.08 858.934L1777.95 772.999ZM1836.2 711.096L1917.06 625.161L1831.13 544.296L1750.26 630.231L1836.2 711.096ZM2328.54 1174.39L2247.68 1260.33L2247.68 1260.33L2328.54 1174.39ZM2337.69 1475.17L2251.75 1394.3L2337.69 1475.17ZM2036.91 1484.31L1956.05 1570.25L1956.05 1570.25L2036.91 1484.31ZM1575.52 1050.14L1656.38 964.206L1656.38 964.206L1575.52 1050.14ZM1633.77 988.239L1714.63 902.303L1714.63 902.303L1633.77 988.239ZM1862.47 1670.36L1781.61 1756.3L1781.61 1756.3L1862.47 1670.36ZM2043.09 1664.87L1957.16 1584.01L1957.16 1584.01L2043.09 1664.87ZM2037.6 1484.25L1956.74 1570.18L1956.74 1570.18L2037.6 1484.25ZM2095.85 1422.34L2014.99 1508.28L2014.99 1508.28L2095.85 1422.34ZM2105 1723.12L2019.06 1642.26L2105 1723.12ZM1804.22 1732.26L1885.09 1646.33L1885.09 1646.33L1804.22 1732.26ZM1634.46 988.174L1715.32 902.238L1715.32 902.238L1634.46 988.174ZM1342.83 1298.09L1261.96 1384.03L1261.96 1384.03L1342.83 1298.09ZM1576.21 1050.08L1657.07 964.141L1657.07 964.141L1576.21 1050.08ZM1401.08 1236.19L1481.94 1150.26L1481.94 1150.26L1401.08 1236.19ZM1629.47 1918.36L1710.34 1832.43L1702.03 1824.61L1692.38 1818.53L1629.47 1918.36ZM1580.5 1887.5L1643.41 1787.67L1306.46 1575.32L1473.36 1936.95L1580.5 1887.5ZM1810.09 1912.87L1724.16 1832.01L1724.16 1832.01L1810.09 1912.87ZM1804.6 1732.25L1885.47 1646.31L1885.47 1646.31L1804.6 1732.25ZM1862.85 1670.34L1781.99 1756.28L1781.99 1756.28L1862.85 1670.34ZM1872 1971.12L1957.93 2051.98L1872 1971.12ZM1607.5 1971.12H1489.5V2022.11L1526.64 2057.06L1607.5 1971.12ZM1607.5 1946H1725.5V1920.08L1714.64 1896.55L1607.5 1946ZM1637 2022.52L1681.35 1913.17L1681.35 1913.17L1637 2022.52ZM1401.46 1236.17L1482.32 1150.24L1482.32 1150.24L1401.46 1236.17ZM1343.21 1298.08L1262.34 1384.01L1262.34 1384.01L1343.21 1298.08ZM1264.74 268.889L1344.47 355.876L1344.73 355.641L1344.98 355.403L1264.74 268.889ZM1264.83 268.802L1184.63 182.246L1184.61 182.266L1184.59 182.287L1264.83 268.802ZM721.285 821.532L630.095 896.421L630.095 896.421L721.285 821.532ZM903.526 925.391L934.525 811.536L934.525 811.536L903.526 925.391ZM1170.17 906.052L1117.29 800.565L1117.29 800.565L1170.17 906.052ZM1567.13 574.619L1647.86 488.558L1558.87 405.078L1478.42 496.816L1567.13 574.619ZM2368.61 1326.44L2287.88 1412.5L2388.17 1506.58L2465.93 1393.17L2368.61 1326.44ZM2396.61 1285.59L2493.94 1352.32L2493.94 1352.32L2396.61 1285.59ZM2591.65 798.02L2474.37 784.997L2474.37 784.997L2591.65 798.02ZM2360.61 200.546L2441.07 114.232L2441.07 114.232L2360.61 200.546ZM1725.93 24.9122L1700.6 -90.3372L1700.6 -90.3372L1725.93 24.9122ZM2302.65 262.722L2222.19 349.037L2222.19 349.037L2302.65 262.722ZM1744.18 107.931L1718.85 -7.31853L1718.85 -7.31853L1744.18 107.931ZM2507.17 788.639L2624.45 801.662L2624.45 801.662L2507.17 788.639ZM2353.8 1196L2273.12 1282.11L2377.47 1379.89L2453.65 1258.87L2353.8 1196ZM1544.07 499.548L1452.66 424.926L1452.66 424.926L1544.07 499.548ZM1132.08 830.066L1184.96 935.553L1184.96 935.553L1132.08 830.066ZM925.856 843.377L894.857 957.232L894.857 957.232L925.856 843.377ZM817.422 794.197L737.69 707.209L629.045 806.792L749.981 891.025L817.422 794.197ZM1322.43 331.309L1402.16 418.297L1402.4 418.078L1402.64 417.857L1322.43 331.309ZM1322.52 331.229L1402.73 417.777L1402.73 417.772L1322.52 331.229ZM1566.77 471.743L1658.18 546.366L1658.18 546.366L1566.77 471.743ZM1579.9 470.867L1660.58 384.76L1660.58 384.76L1579.9 470.867ZM708.963 806.528L800.153 731.639L800.153 731.639L708.963 806.528ZM711.099 776.347L790.831 863.335L711.099 776.347ZM1692.63 1735.46C1559.3 1612.82 1350.3 1618.72 1224.45 1749.27L1394.35 1913.06C1430.98 1875.07 1493.6 1873.04 1532.86 1909.16L1692.63 1735.46ZM1706.86 2200.52C1834.22 2068.41 1827.54 1859.56 1692.63 1735.46L1532.86 1909.16C1570.54 1943.82 1572.07 2000.3 1536.96 2036.73L1706.86 2200.52ZM1542.21 2371.31L1706.86 2200.52L1536.96 2036.73L1372.31 2207.52L1542.21 2371.31ZM1074.03 2385.12C1207.36 2507.76 1416.36 2501.86 1542.21 2371.31L1372.31 2207.52C1335.68 2245.51 1273.06 2247.54 1233.8 2211.42L1074.03 2385.12ZM1059.8 1920.06C932.44 2052.17 939.117 2261.02 1074.03 2385.12L1233.8 2211.42C1196.11 2176.76 1194.59 2120.28 1229.7 2083.85L1059.8 1920.06ZM1454.22 1968.13C1456.71 1965.54 1460.38 1963.73 1465.1 1963.6C1469.82 1963.46 1473.71 1965.05 1476.5 1967.62L1636.27 1793.92C1536.01 1701.69 1379.04 1706.08 1284.31 1804.34L1454.22 1968.13ZM1290.15 2152.96C1287.51 2150.53 1286.7 2148.09 1286.63 2145.9C1286.56 2143.72 1287.21 2141.37 1289.57 2138.92L1119.66 1975.13C1023.43 2074.95 1028.54 2232.97 1130.38 2326.66L1290.15 2152.96ZM1312.44 2152.45C1309.94 2155.04 1306.28 2156.85 1301.56 2156.99C1296.84 2157.12 1292.94 2155.53 1290.15 2152.96L1130.38 2326.66C1230.65 2418.89 1387.62 2414.51 1482.34 2316.25L1312.44 2152.45ZM1477.09 1981.66L1312.44 2152.45L1482.34 2316.25L1646.99 2145.45L1477.09 1981.66ZM1476.5 1967.62C1479.15 1970.05 1479.96 1972.49 1480.03 1974.68C1480.09 1976.87 1479.45 1979.21 1477.09 1981.66L1646.99 2145.45C1743.23 2045.63 1738.12 1887.61 1636.27 1793.92L1476.5 1967.62ZM1439.99 1503.07C1306.66 1380.43 1097.65 1386.33 971.804 1516.87L1141.71 1680.67C1178.33 1642.68 1240.96 1640.65 1280.22 1676.77L1439.99 1503.07ZM1454.22 1968.13C1581.58 1836.02 1574.9 1627.17 1439.99 1503.07L1280.22 1676.77C1317.9 1711.43 1319.43 1767.91 1284.31 1804.34L1454.22 1968.13ZM821.384 2152.72C954.716 2275.37 1163.72 2269.47 1289.57 2138.92L1119.66 1975.13C1083.04 2013.12 1020.42 2015.15 981.155 1979.03L821.384 2152.72ZM807.154 1687.67C679.798 1819.78 686.475 2028.63 821.384 2152.72L981.155 1979.03C943.47 1944.37 941.943 1887.89 977.06 1851.46L807.154 1687.67ZM1201.58 1735.74C1204.07 1733.15 1207.74 1731.34 1212.46 1731.2C1217.18 1731.07 1221.07 1732.66 1223.86 1735.23L1383.63 1561.53C1283.36 1469.3 1126.4 1473.68 1031.67 1571.94L1201.58 1735.74ZM1037.51 1920.57C1034.86 1918.14 1034.06 1915.7 1033.99 1913.51C1033.92 1911.32 1034.57 1908.98 1036.93 1906.53L867.022 1742.74C770.79 1842.56 775.896 2000.58 877.741 2094.26L1037.51 1920.57ZM1059.8 1920.06C1057.3 1922.65 1053.64 1924.46 1048.92 1924.59C1044.19 1924.73 1040.3 1923.14 1037.51 1920.57L877.741 2094.26C978.009 2186.5 1134.98 2182.11 1229.7 2083.85L1059.8 1920.06ZM1223.86 1735.23C1226.51 1737.66 1227.32 1740.09 1227.38 1742.29C1227.45 1744.47 1226.8 1746.82 1224.45 1749.27L1394.35 1913.06C1490.58 1813.24 1485.48 1655.22 1383.63 1561.53L1223.86 1735.23ZM1187.35 1270.68C1054.02 1148.04 845.012 1153.94 719.162 1284.48L889.068 1448.28C925.692 1410.28 988.314 1408.26 1027.58 1444.37L1187.35 1270.68ZM1201.58 1735.74C1328.93 1603.63 1322.26 1394.78 1187.35 1270.68L1027.58 1444.37C1065.26 1479.04 1066.79 1535.52 1031.67 1571.94L1201.58 1735.74ZM568.742 1920.33C702.074 2042.98 911.078 2037.08 1036.93 1906.53L867.022 1742.74C830.398 1780.73 767.776 1782.75 728.514 1746.64L568.742 1920.33ZM554.513 1455.28C427.156 1587.39 433.833 1796.24 568.742 1920.33L728.514 1746.64C690.829 1711.97 689.301 1655.5 724.418 1619.07L554.513 1455.28ZM948.935 1503.34C951.429 1500.76 955.095 1498.95 959.815 1498.81C964.538 1498.67 968.431 1500.27 971.22 1502.83L1130.99 1329.14C1030.72 1236.91 873.754 1241.29 779.03 1339.55L948.935 1503.34ZM784.87 1688.18C782.223 1685.74 781.416 1683.31 781.348 1681.12C781.28 1678.93 781.928 1676.58 784.286 1674.14L614.38 1510.35C518.148 1610.17 523.254 1768.19 625.099 1861.87L784.87 1688.18ZM807.154 1687.67C804.661 1690.26 800.995 1692.06 796.275 1692.2C791.552 1692.34 787.659 1690.74 784.87 1688.18L625.099 1861.87C725.367 1954.1 882.335 1949.72 977.06 1851.46L807.154 1687.67ZM971.22 1502.83C973.867 1505.27 974.674 1507.7 974.742 1509.9C974.809 1512.08 974.162 1514.43 971.804 1516.87L1141.71 1680.67C1237.94 1580.84 1232.84 1422.82 1130.99 1329.14L971.22 1502.83ZM934.705 1038.29C801.374 915.644 592.37 921.544 466.52 1052.09L636.426 1215.88C673.05 1177.89 735.672 1175.87 774.934 1211.98L934.705 1038.29ZM948.935 1503.34C1076.29 1371.23 1069.61 1162.38 934.705 1038.29L774.934 1211.98C812.619 1246.65 814.147 1303.12 779.03 1339.55L948.935 1503.34ZM316.101 1687.94C449.432 1810.58 658.436 1804.68 784.286 1674.14L614.38 1510.35C577.756 1548.34 515.134 1550.36 475.872 1514.25L316.101 1687.94ZM301.871 1222.88C174.514 1354.99 181.192 1563.84 316.101 1687.94L475.872 1514.25C438.187 1479.58 436.66 1423.11 471.776 1386.68L301.871 1222.88ZM466.52 1052.09L301.871 1222.88L471.776 1386.68L636.426 1215.88L466.52 1052.09ZM696.293 1270.95C698.787 1268.36 702.453 1266.56 707.173 1266.42C711.896 1266.28 715.789 1267.88 718.578 1270.44L878.349 1096.75C778.081 1004.52 621.112 1008.9 526.388 1107.16L696.293 1270.95ZM531.644 1441.75L696.293 1270.95L526.388 1107.16L361.738 1277.95L531.644 1441.75ZM532.228 1455.79C529.581 1453.35 528.774 1450.92 528.706 1448.73C528.638 1446.54 529.286 1444.19 531.644 1441.75L361.738 1277.95C265.506 1377.78 270.612 1535.8 372.457 1629.48L532.228 1455.79ZM554.513 1455.28C552.019 1457.86 548.353 1459.67 543.633 1459.81C538.91 1459.95 535.017 1458.35 532.228 1455.79L372.457 1629.48C472.725 1721.71 629.694 1717.33 724.418 1619.07L554.513 1455.28ZM718.578 1270.44C721.225 1272.88 722.032 1275.31 722.1 1277.5C722.168 1279.69 721.52 1282.04 719.162 1284.48L889.068 1448.28C985.299 1348.45 980.194 1190.43 878.349 1096.75L718.578 1270.44ZM1407.23 165.346C1299.55 65.534 1112.71 -55.7905 890.603 -100.465L844.066 130.901C1014.45 165.173 1163.41 261.132 1246.8 338.432L1407.23 165.346ZM1355.78 394.443L1413.56 332.103L1240.48 171.674L1182.69 234.015L1355.78 394.443ZM827.304 214.232C979.076 244.76 1114.38 331.591 1189.02 400.772L1349.45 227.686C1250.51 135.978 1077.31 23.7927 873.842 -17.1338L827.304 214.232ZM374.068 346.961C525.526 205.776 683.545 185.317 827.304 214.232L873.842 -17.1338C666.58 -58.8226 428.03 -25.9738 213.148 174.332L374.068 346.961ZM230.955 891.86C203.678 800.704 193.981 707.968 212.274 618.345C230.25 530.274 276.702 437.722 374.068 346.961L213.148 174.332C82.0464 296.541 9.41528 432.132 -18.959 571.149C-47.0166 708.615 -30.3302 841.914 4.85988 959.515L230.955 891.86ZM458.119 1282.57C411.413 1235.86 287.182 1079.76 230.955 891.86L4.85988 959.515C75.1811 1194.52 224.987 1383.19 291.242 1449.45L458.119 1282.57ZM500.584 1325.77C482.74 1307.46 468.229 1292.68 458.119 1282.57L291.242 1449.45C300.212 1458.42 313.835 1472.28 331.553 1490.47L500.584 1325.77ZM437.536 1551.95L498.416 1492.63L333.721 1323.6L272.841 1382.92L437.536 1551.95ZM231.138 1509.55C239.697 1518.11 253 1531.65 270.673 1549.79L439.704 1385.09C421.906 1366.82 407.715 1352.37 398.015 1342.67L231.138 1509.55ZM-76.5725 983.882C-1.1731 1235.86 157.849 1436.26 231.138 1509.55L398.015 1342.67C344.265 1288.92 210.825 1121.09 149.522 916.227L-76.5725 983.882ZM155.19 112.156C-143.944 391 -154.993 721.812 -76.5725 983.882L149.522 916.227C89.626 716.062 99.1771 487.003 316.109 284.786L155.19 112.156ZM890.603 -100.465C660.561 -146.736 392.975 -109.5 155.19 112.156L316.109 284.786C490.384 122.332 677.394 97.3769 844.066 130.901L890.603 -100.465ZM2176.03 1336.47L1714.63 902.303L1552.9 1074.17L2014.3 1508.34L2176.03 1336.47ZM2189.85 1336.05C2186.15 1339.99 2179.96 1340.17 2176.03 1336.47L2014.3 1508.34C2113.15 1601.37 2268.7 1596.64 2361.72 1497.78L2189.85 1336.05ZM2189.43 1322.23C2193.36 1325.93 2193.55 1332.12 2189.85 1336.05L2361.72 1497.78C2454.74 1398.93 2450.01 1243.38 2351.16 1150.36L2189.43 1322.23ZM1697.08 858.934L2189.43 1322.23L2351.16 1150.36L1858.81 687.064L1697.08 858.934ZM1750.26 630.231L1692.01 692.134L1863.88 853.864L1922.13 791.961L1750.26 630.231ZM2409.41 1088.46L1917.06 625.161L1755.33 797.032L2247.68 1260.33L2409.41 1088.46ZM2423.62 1556.03C2548.81 1422.99 2542.45 1213.65 2409.41 1088.46L2247.68 1260.33C2285.8 1296.2 2287.62 1356.18 2251.75 1394.3L2423.62 1556.03ZM1956.05 1570.25C2089.09 1695.44 2298.43 1689.08 2423.62 1556.03L2251.75 1394.3C2215.88 1432.42 2155.9 1434.25 2117.78 1398.38L1956.05 1570.25ZM1494.65 1136.08L1956.05 1570.25L2117.78 1398.38L1656.38 964.206L1494.65 1136.08ZM1656.38 964.206C1686.75 992.781 1688.2 1040.56 1659.63 1070.93L1487.75 909.2C1427.01 973.755 1430.1 1075.33 1494.65 1136.08L1656.38 964.206ZM1714.63 902.303C1650.08 841.557 1548.5 844.646 1487.75 909.2L1659.63 1070.93C1631.05 1101.3 1583.27 1102.75 1552.9 1074.17L1714.63 902.303ZM1943.34 1584.43L1481.94 1150.26L1320.21 1322.13L1781.61 1756.3L1943.34 1584.43ZM1957.16 1584.01C1953.46 1587.94 1947.27 1588.13 1943.34 1584.43L1781.61 1756.3C1880.46 1849.32 2036.01 1844.59 2129.03 1745.73L1957.16 1584.01ZM1956.74 1570.18C1960.67 1573.88 1960.86 1580.07 1957.16 1584.01L2129.03 1745.73C2222.05 1646.88 2217.32 1491.33 2118.47 1398.31L1956.74 1570.18ZM1495.34 1136.01L1956.74 1570.18L2118.47 1398.31L1657.07 964.141L1495.34 1136.01ZM2176.72 1336.41L1715.32 902.238L1553.59 1074.11L2014.99 1508.28L2176.72 1336.41ZM2190.93 1803.98C2316.13 1670.94 2309.76 1461.6 2176.72 1336.41L2014.99 1508.28C2053.11 1544.15 2054.93 1604.13 2019.06 1642.26L2190.93 1803.98ZM1723.36 1818.2C1856.4 1943.39 2065.74 1937.03 2190.93 1803.98L2019.06 1642.26C1983.19 1680.38 1923.21 1682.2 1885.09 1646.33L1723.36 1818.2ZM1261.96 1384.03L1723.36 1818.2L1885.09 1646.33L1423.69 1212.16L1261.96 1384.03ZM1660.32 1070.86C1631.74 1101.23 1583.96 1102.68 1553.59 1074.11L1715.32 902.238C1650.77 841.492 1549.19 844.581 1488.45 909.135L1660.32 1070.86ZM1423.69 1212.16C1454.06 1240.73 1455.51 1288.52 1426.94 1318.88L1255.06 1157.15C1194.32 1221.71 1197.41 1323.28 1261.96 1384.03L1423.69 1212.16ZM1657.07 964.141C1687.44 992.716 1688.89 1040.5 1660.32 1070.86L1488.45 909.135C1427.7 973.69 1430.79 1075.27 1495.34 1136.01L1657.07 964.141ZM1481.94 1150.26C1417.39 1089.51 1315.81 1092.6 1255.06 1157.15L1426.94 1318.88C1398.36 1349.25 1350.58 1350.7 1320.21 1322.13L1481.94 1150.26ZM1692.38 1818.53L1643.41 1787.67L1517.59 1987.33L1566.56 2018.19L1692.38 1818.53ZM1724.16 1832.01C1720.46 1835.94 1714.27 1836.13 1710.34 1832.43L1548.61 2004.3C1647.46 2097.32 1803.01 2092.59 1896.03 1993.73L1724.16 1832.01ZM1723.74 1818.18C1727.67 1821.88 1727.86 1828.07 1724.16 1832.01L1896.03 1993.73C1989.05 1894.88 1984.32 1739.33 1885.47 1646.31L1723.74 1818.18ZM1262.34 1384.01L1723.74 1818.18L1885.47 1646.31L1424.07 1212.14L1262.34 1384.01ZM1943.72 1584.41L1482.32 1150.24L1320.59 1322.11L1781.99 1756.28L1943.72 1584.41ZM1957.93 2051.98C2083.13 1918.94 2076.76 1709.6 1943.72 1584.41L1781.99 1756.28C1820.11 1792.15 1821.93 1852.13 1786.06 1890.26L1957.93 2051.98ZM1489.5 1946V1971.12H1725.5V1946H1489.5ZM1473.36 1936.95L1500.36 1995.45L1714.64 1896.55L1687.64 1838.05L1473.36 1936.95ZM1526.64 2057.06C1504.97 2036.67 1501.81 2007.76 1505.25 2024.28C1506.32 2029.37 1510.53 2051.76 1524.5 2074.6C1541.12 2101.78 1565.37 2120.8 1592.65 2131.87L1681.35 1913.17C1688.03 1915.88 1696.38 1920.3 1704.9 1927.35C1713.61 1934.54 1720.59 1942.89 1725.85 1951.49C1730.88 1959.73 1733.55 1966.9 1734.88 1971.08C1736.1 1974.89 1736.57 1977.46 1736.28 1976.08C1736.06 1975.02 1736.1 1975.19 1735.64 1972.94C1735.32 1971.38 1734.83 1969.05 1734.22 1966.4C1732.99 1961.08 1730.99 1953.32 1727.68 1944.44C1724.3 1935.37 1719.59 1925.2 1712.88 1914.7C1706.13 1904.15 1697.97 1894.23 1688.36 1885.18L1526.64 2057.06ZM1592.65 2131.87C1715.32 2181.62 1861.49 2154.48 1957.93 2051.98L1786.06 1890.26C1758.59 1919.45 1716.75 1927.53 1681.35 1913.17L1592.65 2131.87ZM1427.32 1318.86C1398.74 1349.23 1350.96 1350.68 1320.59 1322.11L1482.32 1150.24C1417.77 1089.49 1316.19 1092.58 1255.45 1157.14L1427.32 1318.86ZM1424.07 1212.14C1454.44 1240.72 1455.89 1288.5 1427.32 1318.86L1255.45 1157.14C1194.7 1221.69 1197.79 1323.27 1262.34 1384.01L1424.07 1212.14ZM1344.98 355.403C1344.96 355.425 1344.94 355.441 1344.93 355.448C1344.93 355.453 1344.92 355.457 1344.93 355.448C1344.94 355.443 1344.96 355.424 1344.98 355.404C1345 355.383 1345.04 355.352 1345.08 355.316L1184.59 182.287C1184.61 182.265 1184.63 182.249 1184.64 182.243C1184.64 182.237 1184.65 182.233 1184.64 182.242C1184.63 182.248 1184.61 182.266 1184.59 182.286C1184.56 182.308 1184.53 182.338 1184.49 182.374L1344.98 355.403ZM812.475 746.643L800.153 731.639L617.773 881.417L630.095 896.421L812.475 746.643ZM934.525 811.536C870.502 794.104 825.745 762.802 812.475 746.643L630.095 896.421C684.444 962.6 779.178 1013.83 872.527 1039.25L934.525 811.536ZM1117.29 800.565C1061.94 828.314 996.269 828.347 934.525 811.536L872.527 1039.25C970.746 1065.99 1100.08 1073.19 1223.06 1011.54L1117.29 800.565ZM1478.42 496.816C1389.74 597.929 1241.38 738.358 1117.29 800.565L1223.06 1011.54C1388.75 928.475 1561.45 760.06 1655.85 652.423L1478.42 496.816ZM2299.29 1218.87L2271.29 1259.72L2465.93 1393.17L2493.94 1352.32L2299.29 1218.87ZM2474.37 784.997C2455.85 951.793 2375.1 1108.3 2299.29 1218.87L2493.94 1352.32C2580.9 1225.48 2684.43 1031.67 2708.93 811.043L2474.37 784.997ZM2280.15 286.861C2452.1 447.152 2492.43 622.392 2474.37 784.997L2708.93 811.043C2734.42 581.486 2672.67 330.126 2441.07 114.232L2280.15 286.861ZM1751.26 140.162C1919.29 103.232 2106.64 125.119 2280.15 286.861L2441.07 114.232C2201.67 -108.931 1931.28 -141.034 1700.6 -90.3372L1751.26 140.162ZM1345.03 355.358C1429.03 277.529 1579.54 177.901 1751.26 140.162L1700.6 -90.3372C1478 -41.4149 1291.1 83.5936 1184.63 182.246L1345.03 355.358ZM2383.11 176.407C2167.47 -24.6006 1927.01 -53.0691 1718.85 -7.31853L1769.51 223.18C1914.87 191.233 2072.34 209.35 2222.19 349.037L2383.11 176.407ZM2624.45 801.662C2647.26 596.192 2593.21 372.257 2383.11 176.407L2222.19 349.037C2372.7 489.336 2405.26 637.18 2389.89 775.616L2624.45 801.662ZM2453.65 1258.87C2527.76 1141.17 2604.67 979.785 2624.45 801.662L2389.89 775.616C2375.48 905.38 2317.47 1032.23 2253.94 1133.13L2453.65 1258.87ZM1635.48 574.171L1658.18 546.366L1475.36 397.121L1452.66 424.926L1635.48 574.171ZM1184.96 935.553C1347.34 854.154 1545.89 683.918 1635.48 574.17L1452.66 424.926C1381.86 511.659 1208.8 659.613 1079.2 724.578L1184.96 935.553ZM894.857 957.232C980.012 980.417 1086.39 984.967 1184.96 935.553L1079.2 724.578C1048.11 740.166 1005.32 742.717 956.855 729.521L894.857 957.232ZM749.981 891.025C787.197 916.946 837.244 941.546 894.857 957.232L956.855 729.521C924.958 720.837 899.617 707.645 884.863 697.369L749.981 891.025ZM1242.31 244.681L1242.22 244.762L1402.64 417.857L1402.73 417.777L1242.31 244.681ZM1718.85 -7.31853C1514.51 37.5897 1340.67 153.515 1242.3 244.686L1402.73 417.772C1478.6 347.45 1616.05 256.906 1769.51 223.18L1718.85 -7.31853ZM790.831 863.335L1344.47 355.876L1185.01 181.901L631.367 689.36L790.831 863.335ZM2449.34 1240.38L1647.86 488.558L1486.4 660.681L2287.88 1412.5L2449.34 1240.38ZM1499.21 556.975L2273.12 1282.11L2434.48 1109.9L1660.58 384.76L1499.21 556.975ZM1242.7 244.322L737.69 707.209L897.154 881.184L1402.16 418.297L1242.7 244.322ZM1658.18 546.366C1618.26 595.265 1545.28 600.136 1499.21 556.975L1660.58 384.76C1606.91 334.471 1521.87 340.146 1475.36 397.121L1658.18 546.366ZM800.153 731.639C832.516 771.046 828.422 828.879 790.831 863.335L631.367 689.36C576.547 739.608 570.577 823.948 617.773 881.417L800.153 731.639Z" fill="black" mask="url(#path-2-inside-1_0_1)"/>
</svg>
